<?xml version="1.0" encoding="utf-8"?>
<!-- Generator: Adobe Illustrator 23.0.1, SVG Export Plug-In . SVG Version: 6.00 Build 0)  -->
<svg version="1.1" id="Layer_1" xmlns="http://www.w3.org/2000/svg" xmlns:xlink="http://www.w3.org/1999/xlink" x="0px" y="0px"
	 viewBox="0 0 145 38.8" style="enable-background:new 0 0 145 38.8;" xml:space="preserve">
<style type="text/css">
	.st0{fill:#FFFFFF;}
</style>
<path class="st0" d="M0,20.9v-2l1.9-0.2c0.4-0.1,0.5-0.1,0.5-0.6V2.8c0-0.5-0.1-0.6-0.5-0.6L0,2V0h8.9v2L6.4,2.2
	C6,2.2,5.9,2.4,5.9,2.8v15.5h6.8c0.3,0,0.4,0,0.5-0.3l0.5-3h2.5v5.9L0,20.9z"/>
<path class="st0" d="M28.4,20.9l-0.3-1.8H28c-1.4,1.5-3.3,2.3-5.3,2.2c-3.8,0-4.3-2.7-4.3-4.4c0-3.1,1.9-4.6,5.6-4.9l3.8-0.3v-1.6
	c0-1.9-0.3-3-2.7-3c-1.7,0-2.8,0.1-2.8,2.3l-3.3-0.3c0-4,3.5-4.5,6.1-4.5c4.4,0,6,1.3,6,5.5v8c0,0.5,0,0.6,0.5,0.6l1.5,0.2v2
	L28.4,20.9z M27.8,13.9l-2.9,0.2c-2.3,0.2-3,0.9-3,2.4s0.7,2,1.9,2c1.5-0.1,2.9-0.8,3.9-1.9L27.8,13.9z"/>
<path class="st0" d="M45,20.9V19l1.5-0.2c0.4-0.1,0.5-0.2,0.5-0.6V11c0-1.9-0.2-3.4-2.2-3.4c-1.5,0.1-3,0.7-4.1,1.6v8.9
	c0,0.5,0,0.6,0.5,0.6l1.6,0.2v2h-7.5v-2l1.5-0.2c0.4-0.1,0.5-0.1,0.5-0.6v-10c0-0.3-0.1-0.6-0.4-0.7l-1.6-0.6l0.3-2H40l0.2,1.7h0.1
	C42,5.4,44,4.7,46,4.6c3.3,0,4.5,2.1,4.5,5.7v7.8c0,0.5,0,0.6,0.5,0.6l1.7,0.2v2L45,20.9z"/>
<path class="st0" d="M66.8,7.4c0.7,0.9,1.2,2,1.2,3.2c0,3.6-2.8,5.6-6.3,5.6c-0.9,0-1.7-0.1-2.5-0.3l-1.4,2.4l3.7,0.2
	c5.4,0.3,8,0.6,8,4.3c0,3.3-2.8,5.2-8,5.2s-7.2-1.5-7.2-3.8c0-1.5,0.8-2.4,1.8-3.4c-0.8-0.3-1.4-1-1.4-1.9c0-0.7,0.3-1.3,0.7-1.8
	c0.5-0.6,1.1-1.3,1.7-1.9c-1.6-1-2.5-2.7-2.4-4.5c0-3.4,2.4-5.9,6.7-5.9c1,0,1.9,0.1,2.8,0.3h5.5v2.3L66.8,7.4z M58.4,21.4
	c-0.6,0.6-1,1.3-1.1,2.2c0,1.4,1.6,1.9,4.2,1.9c1.5,0,4.5-0.2,4.5-2.2c0-1.4-1.2-1.4-2.9-1.5L58.4,21.4z M61.5,7.1
	c-2,0-3.5,1-3.5,3.4c0,1.8,0.9,3.1,3.4,3.1c2.1,0,3.5-1.2,3.5-3.2c0.2-1.7-1.1-3.2-2.8-3.3C61.9,7.1,61.7,7.1,61.5,7.1z"/>
<path class="st0" d="M81.2,20.9l-0.3-1.8h-0.1c-1.4,1.5-3.3,2.3-5.3,2.2c-3.8,0-4.3-2.7-4.3-4.4c0-3.1,1.9-4.6,5.6-4.9l3.8-0.3v-1.6
	c0-1.9-0.3-3-2.7-3c-1.7,0-2.8,0.1-2.8,2.3l-3.3-0.3c0-4,3.5-4.5,6.1-4.5c4.4,0,6,1.3,6,5.5v8c0,0.5,0,0.6,0.5,0.6l1.5,0.2v2
	L81.2,20.9z M80.6,13.9l-2.9,0.2c-2.3,0.2-3,0.9-3,2.4s0.7,2,1.9,2c1.5-0.1,2.9-0.8,3.9-1.9L80.6,13.9z"/>
<path class="st0" d="M88.1,20.9v-2l1.4-0.2c0.4-0.1,0.5-0.1,0.5-0.6v-10c0-0.3-0.1-0.6-0.4-0.7l-1.7-0.6l0.3-2h4.5l0.3,2.3h0.1
	c1-1.5,2.6-2.5,4.4-2.6c0.8,0,1.6,0.1,2.4,0.3V10l-2.7-0.1L96.9,8c0-0.3-0.1-0.3-0.4-0.3c-1.2,0.2-2.2,0.8-3,1.6v8.9
	c0,0.5,0.1,0.6,0.5,0.6l2.8,0.2v2L88.1,20.9z"/>
<path class="st0" d="M111.7,20.9l-0.3-1.8h-0.1c-1.4,1.4-3.3,2.2-5.3,2.2c-3.8,0-4.3-2.7-4.3-4.4c0-3.1,1.9-4.6,5.6-4.9l3.8-0.3
	v-1.6c0-1.9-0.3-3-2.7-3c-1.7,0-2.8,0.1-2.8,2.3l-3.3-0.3c0-4,3.5-4.5,6.1-4.5c4.4,0,6,1.3,6,5.5v8c0,0.5,0,0.6,0.5,0.6l1.5,0.2v2
	L111.7,20.9z M111.1,13.9l-2.9,0.2c-2.3,0.2-3,0.9-3,2.4s0.7,2,1.9,2c1.5-0.1,2.9-0.8,3.9-1.9L111.1,13.9z"/>
<path class="st0" d="M120.9,21.3c-1.2,0-1.9-0.6-1.9-1.8c0.1-1,1-1.8,2-1.7c0.9,0.1,1.7,0.8,1.7,1.7c0.1,0.9-0.5,1.7-1.4,1.8
	C121.2,21.3,121.1,21.3,120.9,21.3z"/>
<title>Asset 12</title>
</svg>
